<?xml version="1.0" encoding="UTF-8"?>
<svg id="Layer_2" data-name="Layer 2" xmlns="http://www.w3.org/2000/svg" viewBox="0 0 1092.63 664.66">
  <defs>
    <style>
      .cls-1 {
        fill: #9dbfa7;
      }

      .cls-2 {
        fill: #fff;
      }

      .cls-3 {
        fill: #d16253;
      }
    </style>
  </defs>
  <g id="Layer_1-2" data-name="Layer 1">
    <g>
      <path class="cls-2" d="M1091.62,195.86c-.17-1.2-.39-2.35-.61-3.46l-.27-1.41c-1.71-11.1-4.62-29.42-18.58-36.56-5.22-2.75-14-4.81-26.27.94-3.67,1.75-6.19,2.57-7.8,2.96-.08-1.11-.13-2.66-.08-4.85.35-9.52.35-20.64.35-24.83,0-7.32-5.44-13.51-12.7-14.44-46.43-5.98-53.78.37-56.95,3.11-10.69,9.29-12.66,22.92-4.96,34.05,1.06,1.64,2.19,3.02,3.28,4.36l.88,1.09c.19.24.39.48.6.7,1.56,1.72,6.18,6.79,5.97,9.16-1.24,1.7-6.27,5.32-13.03,7.28-7.32,2.14-12.14,1.07-13.46-.06-3.39-2.98-4.28-14.38-2.01-25.95.86-4.38-.34-8.91-3.25-12.29-2.91-3.38-7.2-5.25-11.67-5.05-8.6.37-27.03,2.53-41.9,13.54-5.35-10.12-8.86-18.65-9.93-23.29,3.62.13,9.97,1.66,14.47,2.79.69.27,1.39.49,2.11.65,11.44,2.6,18.72-2.15,22.04-5.21.07-.07.15-.14.22-.21,11.07-10.65,8.67-29.43,7.67-34.93-.06-.31-.12-.59-.19-.89-.09-.41-.15-.88-.23-1.36-.13-.85-.27-1.72-.44-2.6l-.03-.18c-1.99-11.53-5.01-28.97-18.29-36.24-.16-.09-.32-.17-.48-.25-7.55-3.77-16.34-3.37-26.09,1.21-3.62,1.7-6.15,2.52-7.8,2.92-.08-1.07-.11-2.54-.01-4.52,0-.14.01-.28.01-.41.23-12.7.35-21.05.35-24.84,0-7.38-5.52-13.59-12.84-14.46-46.28-5.5-53.17.14-56.48,2.85-.11.09-.22.18-.33.28-10.79,9.37-12.71,22.85-4.89,34.32.06.09.13.19.19.28.91,1.27,2.38,3.22,4.28,5.37l.08.09c2.47,2.89,6.12,7.17,6.06,9.51-1.33,1.68-6.31,5.13-12.93,7.05-8.41,2.42-12.66.88-13.42.21-3.49-3.12-4.4-14.31-2.11-26.04.85-4.32-.31-8.8-3.15-12.17s-7.08-5.27-11.45-5.18c-8.48.18-37.01,2.51-53.21,24.47-15.79,8.93-29.87,15.57-38.08,18.59.67-4.2,1.89-9.5,2.83-13.59l1.34-5.36c.05-.2.1-.41.14-.61,2.29-11.21-2.57-21.67-13.36-28.7-.16-.1-.33-.21-.49-.31-14.37-8.58-38.46-9.79-53.88,3.02-.07.06-.14.11-.2.17-10.59,9.12-12.51,18.28-12.27,24.22.48,14.83,13.84,24.78,18.23,28.05.09.07.18.13.27.2.83.59,1.72,2.41,1.69,3.85-.29.92-1.95,1.9-3.41,2.5-7.35,2.74-19.31,3.8-32.05,2.82-.62-.05-1.23-.04-1.84-.01-.71-.2-1.44-.36-2.19-.45-46.28-5.49-53.17.14-56.48,2.85-.06.05-.12.1-.18.15-10.88,9.2-12.97,22.25-5.46,34.06.14.22.28.43.43.64,1.28,1.8,2.9,3.62,4.48,5.4l.08.09c2.47,2.89,6.11,7.17,6.05,9.51-1.33,1.68-6.31,5.13-12.93,7.06-7.45,2.15-12.12,1.22-13.31.14-.07-.06-.14-.13-.21-.19-2.76-2.42-4.61-11.69-2.12-26.3.74-4.34-.52-8.77-3.43-12.07-2.91-3.3-7.14-5.12-11.55-4.92-10.93.47-37.73,3.85-52.93,24.74-20.19,11.02-31.63,16.06-37.85,18.35.69-4.25,1.92-9.59,2.87-13.74l1.17-5.34c2.67-11.55-2.61-22.79-13.79-29.37-14.4-8.67-38.41-9.88-53.9,3.2-10.28,8.87-12.44,17.81-12.44,23.75,0,.31,0,.63.03.94.65,10.01,6.7,19.06,18.5,27.67l.15.11c.82.58,1.72,2.47,1.56,3.7-.13.96-1.9,2.02-3.44,2.66-7.34,2.74-19.23,3.79-31.88,2.82-.67-.05-1.33-.04-1.99,0-.7-.2-1.41-.35-2.15-.45-46.19-5.71-53.48.31-56.6,2.88-.09.08-.19.16-.28.23-10.79,9.38-12.71,22.85-4.89,34.32.06.09.12.17.18.26.92,1.29,2.44,3.3,4.37,5.47,2.39,2.71,6.33,7.17,6.12,9.46-1.25,1.65-6.28,5.17-12.98,7.12-6.98,2.01-11.88,1.41-13.52-.05-2.9-2.54-4.58-12.52-2-26.01.84-4.37-.37-8.89-3.28-12.26s-7.2-5.22-11.65-5.03c-33.52,1.45-48.8,18.59-53.82,25.89-3,4.37-3.39,10.02-1.02,14.75,1.57,3.13,3.18,6.37,5.07,9.62,2.84,5.5,8.99,17.53,7.92,20.78,0,0-.25.36-1.14.91-4.41,2.74-8.96,1.66-15.94-.45l-.22-.07c-6.16-1.95-14.59-4.61-21.73,1.35-.15.12-.29.25-.44.38-10.63,9.61-8.49,31.21-3.42,46.84,5.26,16.82,12.57,25.81,22.35,27.45,4.32.79,12.01.46,19.24-8.75,3.03-3.96,8.01-7.57,11.54-9.29,1.03,10.79.8,27.38.31,40.2-36.78-3.35-42.77,1.76-45.69,4.25-10.97,9.24-12.96,22.7-5.06,34.29.06.09.12.18.19.26.9,1.26,2.37,3.2,4.29,5.38l.09.1c2.47,2.89,6.12,7.17,6.06,9.51-1.33,1.68-6.31,5.13-12.93,7.05-7.88,2.27-12.24,1.09-13.55.09-3.39-3.27-4.25-14.33-1.98-25.92.85-4.32-.31-8.8-3.15-12.17-2.84-3.37-7.05-5.26-11.46-5.18-8.64.19-38.08,2.6-54.09,25.68-3.04,4.37-3.44,10.06-1.06,14.82l4.64,9.28c.03.06.06.11.09.17l.1.18c2.93,5.68,9.03,17.49,8.11,20.7-.07.1-.41.46-1.34,1.03-4.08,2.59-8.23,1.92-15.97-.54-.08-.02-.15-.05-.23-.07l-.99-.3c-4.93-1.5-14.06-4.29-21.13,2.48-10.42,9.8-8.32,31.13-3.3,46.55,5.52,16.83,12.5,25.55,21.98,27.44.46.09.93.16,1.4.21,4.03.41,11.75-.25,18.35-9.08,3.13-3.95,8.04-7.52,11.52-9.24,1.38,14.41.34,38.94-.07,48.48l-.11,2.55c-.31,7.79,5.57,14.45,13.34,15.1,3.18.26,7.29.5,11.9.5,9.61,0,21.35-1.02,31.25-4.9,10.58-4.17,17.22-11.95,18.69-21.9.02-.11.03-.22.04-.32,1.44-11.47-4.73-21.62-11.56-26.65-6.86-4.99-8.42-8.21-8.44-9.1-.03-1.08,1.39-2.95,3.67-4.85,6.5-5.39,19.09-4.97,25.54-1.04,2.65,1.62,2.76,2.62,2.68,3.16l-1.28,5.13c-.03.13-.06.26-.09.39-3.74,16.9-6.21,28.07-.58,36.87,2.6,4.07,6.63,6.89,11.36,7.96,4.28,1.01,12.11,2.66,51.36-18.31,2.93,5.56,8.96,17.17,7.96,20.33,0,0-.27.39-1.21.98-4.41,2.74-8.96,1.67-15.93-.44l-1.19-.36c-5.81-1.77-13.77-4.18-20.75,1.62-.16.13-.31.27-.47.4-13.63,12.34-5.22,41.21-3.42,46.81,5.33,16.84,12.64,25.84,22.34,27.47,4.32.79,12,.48,19.14-8.6.04-.05.08-.1.11-.15,3.03-3.96,8-7.57,11.54-9.28,1.43,15.18.38,41.45-.17,50.77-.47,7.9,5.44,14.73,13.33,15.38,2.59.22,6.52.46,11.16.46,9.29,0,21.49-.96,31.8-4.96,10.56-3.9,17.44-11.92,18.89-22.04,0-.07.02-.14.03-.2,1.48-11.47-4.7-21.65-11.55-26.7-5.91-4.3-8.22-7.52-8.44-9.07.09-1.1,1.48-2.9,3.76-4.8,6.48-5.46,18.93-4.97,25.7-.91,2.73,1.65,2.51,2.72,2.42,3.16l-1.18,5.4c-2.03,8.7-3.62,15.82-3.96,21.64-1.07,18.01,10.88,22.33,14.56,23.22,1.12.27,2.27.41,3.43.41h.86c14.13,0,52.06-21.29,56.34-23.72,1.92-1.09,3.48-2.56,4.68-4.25,1.16-.83,2.22-1.81,3.11-2.98,5.72-7.45,14.61-10.96,22.07-12.62-.62,12.54,1.42,26.88,11.5,35.74,5.4,4.89,12.88,7.41,21.53,7.41,4.68,0,9.7-.74,14.92-2.23,11.47-3.34,26.08-11.51,29.52-23.55,4.14-14.49-5.46-25.93-10.62-32.08l-.3-.36c-.11-.13-.22-.26-.34-.39-.92-1.02-2.17-2.41-2.66-3.15-.22-.33-.33-.57-.4-.71.05-.07.11-.17.19-.27,4.37-.86,17.31-1.11,38.35,1.52.88.11,1.75.13,2.6.08.86.24,1.73.42,2.64.49,2.59.22,6.52.46,11.18.46,9.3,0,21.52-.95,31.92-4.94,10.79-3.97,17.63-12.13,18.8-22.41,1.41-11.42-4.75-21.52-11.5-26.49-.07-.05-.14-.1-.21-.15-5.79-4.11-8.07-7.33-8.3-8.95.08-.66.96-2.34,3.98-4.86,6.17-5.25,19-4.75,25.47-.86,1.26.76,2.71,1.89,2.46,2.97l-.04.19-1.18,5.4c-2.3,9.82-3.6,16.2-3.9,21.71-.98,17.88,10.77,22.23,14.51,23.16,4.3,1.04,13.26,3.2,60.55-23.27,1.91-1.07,3.5-2.55,4.73-4.28,1.17-.83,2.24-1.82,3.14-2.99,5.73-7.46,14.65-10.98,22.11-12.63-.64,12.04,1.25,26.78,11.49,35.78,5.48,4.87,13,7.37,21.62,7.37,4.64,0,9.6-.72,14.73-2.19,11.21-3.2,25.68-11.09,29.58-22.8.08-.23.15-.46.21-.69,4.13-14.79-5.65-26.24-11.1-32.5-.39-.48-.77-.95-1.15-1.41-.67-.82-1.37-1.67-1.69-2.14-.04-.07-.09-.13-.13-.2-.17-.25-.27-.44-.34-.57.04-.07.1-.15.17-.25,5.09-1.02,19.45-.84,38.45,1.54.82.1,1.65.11,2.47.07.89.25,1.81.42,2.77.5,2.64.22,6.66.47,11.43.47,9.26,0,21.32-.93,31.54-4.8.06-.02.13-.05.19-.07,10.58-4.17,17.21-11.95,18.69-21.9.02-.11.03-.22.05-.33,1.45-11.57-4.72-21.78-11.48-26.76-.07-.05-.15-.11-.22-.16-6.75-4.78-8.28-7.95-8.3-8.83-.03-1.08,1.39-2.95,3.67-4.85,6.5-5.39,19.09-4.97,25.54-1.04,2.65,1.62,2.76,2.62,2.68,3.16l-1.28,5.13c-.03.12-.06.24-.08.36-3.77,16.86-6.25,28-.58,36.88,2.6,4.07,6.63,6.9,11.35,7.98,4.05.95,13.6,3,60.57-23.31,3.43-1.92,5.94-5.15,6.95-8.94,1.01-3.8.45-7.84-1.56-11.22-9.9-16.59-15.17-29.28-16.58-35.22,3.75.16,10.29,1.76,14.78,2.88l.49.17c.41.14.83.26,1.26.36,11.35,2.69,18.66-2.1,22.01-5.19.07-.07.14-.13.21-.2,9.07-8.72,9.88-23.89,7.62-35.18-.05-.23-.09-.43-.15-.65-.09-.42-.15-.88-.23-1.36-.12-.79-.26-1.61-.41-2.44-1.6-10.41-4.64-29.39-18.56-36.68-5.17-2.72-13.95-4.75-26.36,1.07-3.58,1.67-6.08,2.5-7.72,2.91-.08-1.1-.13-2.63-.08-4.75.17-4.76.26-9.76.3-14.16.08,0,.15,0,.23,0,9.35,0,21.65-.97,32-5.03,10.58-4.17,17.22-11.94,18.69-21.9.01-.09.03-.18.04-.27,1.3-10.09-3.49-21.06-11.67-26.79-6.76-4.95-8.3-8.13-8.32-9.03-.02-.6.73-2.39,3.67-4.84,6.62-5.48,19.02-4.98,25.79-.81,2.71,1.64,2.48,2.7,2.42,2.99l-1.16,5.32c-2.11,9.1-3.63,15.98-4,21.8-1.15,17.99,10.66,22.37,14.31,23.28.2.05.4.09.6.14,3.7.76,13.52,2.78,60.23-23.38,3.41-1.91,5.91-5.11,6.94-8.89,1.02-3.77.49-7.8-1.49-11.18-11.15-19.03-15.34-30.24-16.59-35.33,3.89.19,10.74,1.9,15.27,3.03.38.1.77.18,1.15.24l.41.07c11.05,2.69,18.27-2,21.63-5.1.08-.07.15-.14.22-.21,9.01-8.67,9.91-23.6,7.71-34.89Z"/>
      <g>
        <path class="cls-1" d="M762.09,298.58l-.17.34c-.17.34-.34.69-.52,1.03l-6.36,11.17c-.34-1.2-.34-2.06-.51-2.92-.17-.52-.34-1.2-.34-1.72,0-1.2,0-2.41.34-3.1,1.37-3.09,4.12-4.47,7.56-4.81Z"/>
        <path class="cls-3" d="M743.7,150.45c-1.2-.34-2.41-.86-3.44-1.72l-11.34-9.11c3.61-1.72,7.22-2.92,9.8-2.23.86.34,3.78,1.03,4.47,7.22.17,1.72.34,3.78.52,5.84Z"/>
        <path class="cls-3" d="M768.45,350.65c-.86.52-1.72,1.03-2.58,1.55-1.03.52-2.06,1.03-3.09,1.72-1.38.69-2.92,1.55-4.64,2.41-.86.52-1.72.86-2.58,1.38-1.89,1.03-3.78,1.89-5.67,2.92-.69.34-1.38.69-2.06,1.03-2.06,1.03-3.95,1.89-6.02,2.75-.51.34-1.2.69-1.72.86-2.06,1.03-3.95,1.89-6.01,2.75-.34.17-.69.34-1.2.52-1.72.69-3.44,1.38-4.98,1.89l8.08-16.15,18.04-31.79c.17.17.34.52.34.69.69,1.55,1.2,2.92,1.89,4.47.51,1.03,1.03,2.23,1.72,3.26.69,1.55,1.38,2.92,2.06,4.3.52,1.03,1.03,2.06,1.55,3.09.69,1.38,1.38,2.75,2.06,3.95.52.86,1.03,1.72,1.55,2.58.69,1.2,1.2,2.23,1.89,3.26.34.69.69,1.38,1.03,1.89.17.17.34.52.34.69Z"/>
        <path class="cls-1" d="M794.05,185.85c-.52,4.64-3.78,8.25-9.45,10.48-1.72.69-3.78,1.2-5.67,1.72-.52.17-1.2.17-1.89.34-1.38.34-2.58.52-3.95.86-.86,0-1.55.17-2.23.17-1.2.17-2.58.34-3.78.52h-2.23c-1.2.17-2.58.17-3.78.17-.51,0-1.2.17-1.72.17-1.72,0-3.27,0-4.81-.17h-1.2c-1.03,0-2.06,0-3.09-.17h-.69c-.51,0-1.03,0-1.38-.17v-.17h-.17c0-1.37.17-3.44.17-5.84.17-1.38.17-2.75.17-4.47,0-.86.17-1.89.17-2.92,0-1.55,0-3.09.17-4.81v-3.44c0-1.89,0-3.61.17-5.33v-9.28c-.17-1.2-.17-2.23-.17-3.44,0-1.55,0-2.92-.17-4.47h26.29c1.37,5.67,5.84,11.34,13.75,17.01,3.27,2.4,6.19,7.73,5.5,13.23Z"/>
        <path class="cls-1" d="M627.19,183.79c-1.03,1.03-2.23,1.72-3.78,1.89-1.38.34-3.09.17-4.98-.17l-1.03-.34c-14.43-3.61-28.01-7.05-32.99,4.64-.69,1.2-.69,3.09-.69,4.98.17.69.34,1.54.34,2.23.34,1.55.52,2.92,1.03,4.64.17.86.52,1.89.86,2.92.51,1.55,1.03,3.1,1.72,4.81.51,1.03.86,2.06,1.38,3.27.69,1.55,1.37,3.09,2.23,4.81.51,1.03,1.03,2.06,1.55,3.1.69,1.72,1.55,3.26,2.41,4.81.34,1.03.86,1.89,1.38,2.75.86,1.55,1.55,2.92,2.41,4.3.34.69.69,1.37,1.03,2.06.86,1.37,1.55,2.58,2.06,3.44.17.34.34.69.52,1.03-.69.34-1.38.86-2.06,1.2-1.38.69-2.75,1.38-4.12,2.23-.52.34-1.2.69-1.89,1.03-16.67,8.76-37.12,18.56-41.93,17.36-5.5-1.2-3.61-11.34.17-27.49l1.2-5.5c1.72-7.39-1.72-14.09-9.11-18.73-11.17-6.7-30.59-7.9-42.45,2.24-6.19,5.15-9.28,10.65-9.11,16.5.34,6.87,4.98,13.58,14.43,20.28,3.44,2.41,6.36,7.73,5.67,13.06-.51,4.81-3.78,8.42-9.45,10.66-1.89.69-3.78,1.2-5.67,1.72-.69.17-1.38.17-2.06.34-1.38.34-2.75.52-3.95.69-.86.17-1.55.34-2.41.34-1.2.17-2.58.34-3.78.34-.69.17-1.37.17-2.06.17-1.37.17-2.75.17-4.12.17h-1.55c-1.72.17-3.27,0-4.81,0h-1.2c-1.03,0-2.06-.17-2.92-.17h-1.03c-.52-.17-.86-.17-1.03-.17v-.17c0-1.2,0-2.58.17-4.3v-1.55c.17-1.54.17-3.09.17-4.81,0-.86.17-1.89.17-2.92,0-1.55,0-3.26.17-4.98v-8.59c.17-1.2.17-2.4.17-3.61v-3.26c4.12-.69,7.73-3.09,9.97-6.53,2.23-3.61,2.92-8.08,1.72-12.03l-1.37-4.12c-.86-3.09-.17-6.36,1.72-8.94l5.84-7.73c1.89-2.41,4.81-3.78,7.91-3.78h29.56c4.98,0,9.45-2.41,12.2-6.53l1.38-2.06c.69-1.03,1.38-1.72,2.23-2.41l7.05-5.33c2.41-1.89,5.5-2.58,8.42-1.72l20.79,5.67c5.33,1.37,11.17-.34,14.78-4.47l32.14-37.12c1.03-1.03,2.23-1.89,3.78-2.41,1.72,4.98,2.75,10.83,3.61,15.64.17,1.72.51,3.27.86,4.81,1.37,7.56,1.03,17.53-3.61,21.82Z"/>
        <path class="cls-1" d="M720.68,139.11c-4.12,2.92-7.73,6.36-10.14,9.45-1.89,2.58-3.78,3.61-5.33,3.27-3.44-.52-7.56-7.05-11-17.53,0-.52-.17-.86-.17-1.38l12.54-1.38c2.58-.34,5.16.34,7.22,2.06l6.87,5.5Z"/>
        <path class="cls-1" d="M744.05,160.25v17.87c0,1.03,0,2.06-.17,3.09,0,2.06,0,3.95-.17,5.84v1.72c0,2.41-.17,4.64-.17,6.36-.17,1.2-.17,2.06-.17,2.92,0,.34,0,.86-.17,1.2-1.2-.17-2.75-.34-4.64-.51-.69-.17-1.55-.17-2.23-.17-1.55-.17-2.92-.34-4.47-.52-1.03,0-2.06-.17-3.09-.17-1.55-.17-3.09-.34-4.81-.34-1.2-.17-2.23-.17-3.44-.17-1.55-.17-3.09-.17-4.81-.17h-7.91c-1.03.17-2.06.17-3.09.17-1.38.17-2.75.34-3.95.69-.69,0-1.55.17-2.06.34-1.72.34-3.27,1.03-4.13,1.72-6.87,6.01-8.25,13.92-3.27,21.31,1.03,1.37,2.41,3.09,3.78,4.64,4.64,5.33,10.31,11.86,8.08,19.25-1.37,4.64-9.97,10.65-19.59,13.4-9.62,2.75-18.04,2.06-22.68-2.06-11.34-9.97-4.81-37.63-4.64-37.98l.69-2.75-2.92-.17h-2.41c-.86.17-1.89.17-3.27.17-.34,0-.86.17-1.55.17-1.2.17-2.41.17-3.95.51-.69,0-1.38.17-2.23.17-1.38.34-2.92.69-4.64,1.03-.86.17-1.55.34-2.41.52-1.89.52-3.78,1.2-5.67,1.89-.69.34-1.37.51-2.06.69-2.58,1.03-5.16,2.41-7.56,3.95-.34.17-.69.51-1.2.69-2.06,1.37-3.95,2.92-5.84,4.64-.69.69-1.38,1.37-2.23,2.23-.86,1.03-1.89,1.89-2.92,3.09-.17-.52-.34-.86-.69-1.2-.34-.69-.86-1.37-1.2-2.23-.69-1.2-1.38-2.41-2.06-3.61-.34-.86-.86-1.72-1.37-2.58-.69-1.2-1.38-2.58-2.06-3.95-.34-.86-.86-1.89-1.38-2.75-.69-1.38-1.2-2.75-1.89-3.95-.52-1.03-.86-1.89-1.38-2.92-.52-1.37-1.03-2.58-1.55-3.95-.51-.86-.86-1.72-1.2-2.58-.52-1.37-.86-2.4-1.2-3.61-.17-.86-.52-1.55-.69-2.41-.34-1.2-.51-2.23-.69-3.27-.17-.52-.34-1.03-.34-1.55-.17-1.37,0-2.58.34-3.27,3.27-7.56,12.54-5.67,27.67-1.89l1.03.17c6.7,1.72,10.83-.52,13.06-2.75,6.19-5.84,6.53-17.87,4.81-26.29-.17-1.37-.52-2.92-.69-4.64-.86-4.81-1.89-10.65-3.61-15.81l58.26-6.87c.17.69.34,1.37.52,2.23,4.3,12.72,9.11,19.76,14.78,20.62,3.27.69,6.7-1.03,9.62-4.98,2.58-3.44,6.53-6.7,10.48-9.28l12.72,10.31c1.89,1.37,4.12,2.23,6.53,2.75,0,1.55.17,3.26.17,4.98Z"/>
        <path class="cls-1" d="M842.86,206.13v5.84c0,2.23-.69,4.3-2.06,6.01l-11.34,14.95c-.86,1.2-2.06,2.23-3.27,2.92l-29.73,15.12c-2.06-5.33-4.81-9.97-9.45-12.37-1.2-.69-2.41-1.2-3.78-1.37-1.38-.34-2.75-.34-4.3-.34-2.92.34-6.02,1.2-9.45,2.75-8.94,4.3-15.29,5.33-18.56,3.27s-3.61-8.08-3.44-14.26c.17-2.06.17-4.3.17-6.36v-1.2c0-2.06.17-3.95.17-5.84v-10.66h.86c.52,0,1.03,0,1.55.17h1.89c.69,0,1.38.17,2.06.17h4.64c1.89,0,3.78,0,5.84-.17h.86c1.89-.17,3.78-.34,5.67-.51.69-.17,1.2-.17,1.89-.34,1.72-.17,3.27-.51,4.81-.86.69-.17,1.38-.34,2.06-.52,2.23-.52,4.3-1.03,6.36-1.89,7.22-2.75,11.69-7.9,12.54-14.26.69-6.53-2.41-13.75-7.56-17.53-6.53-4.64-10.31-8.94-11.86-13.23h6.53c2.41,0,4.64.86,6.53,2.4l46.91,40.73c2.06,1.89,3.44,4.64,3.44,7.39Z"/>
        <path class="cls-1" d="M792.16,253.21l-9.97,4.98c-3.09,1.72-5.5,4.3-6.87,7.56l-11.17,27.84c-6.36,0-11.34,1.89-13.92,7.9-.52,1.2-.69,2.92-.69,4.81,0,.69.34,1.37.34,2.23.17,1.2.34,2.58.86,4.12.17.86.52,1.89.86,2.92.17.34.17.69.34,1.03l-19.93,34.89-10.31,20.79c-1.38.34-2.58.52-3.27.34-5.5-1.37-3.61-11.34.17-27.32l1.2-5.84c1.72-7.22-1.72-14.09-9.11-18.56-11-6.87-30.42-7.9-42.45,2.06-6.19,5.15-9.28,10.82-8.94,16.5.17,6.87,4.98,13.58,14.44,20.45,3.27,2.24,6.19,7.73,5.5,13.06-.52,4.64-3.78,8.25-9.45,10.48-1.89.69-3.78,1.2-5.67,1.72-.69.17-1.38.34-2.06.52-1.2.17-2.58.52-3.95.69-.69.17-1.55.17-2.23.34-1.37.17-2.58.17-3.95.34-.69,0-1.38.17-2.06.17-1.38,0-2.75.17-4.12.17h-6.36c-.52-.17-.86-.17-1.38-.17-.86,0-1.89,0-2.75-.17h-1.03c-.52,0-.69,0-1.03-.17v-.17c0-1.03,0-2.58.17-4.3v-1.2c.17-1.72.17-3.26.17-5.33.17-.69.17-1.55.17-2.23,0-1.72.17-3.44.17-5.33v-3.26c0-1.89.17-3.61.17-5.5v-9.11c0-1.03-.17-2.23-.17-3.27,0-2.06,0-3.95-.17-5.67,0-1.03,0-1.89-.17-2.92,0-2.58-.34-5.16-.51-7.39-.86-7.73-4.81-10.31-7.91-11.17-9.28-2.41-23.37,7.73-29.39,15.81-1.89,2.4-3.78,3.44-5.33,3.26-3.44-.69-7.56-7.22-11-17.7-4.81-14.78-4.13-28.18-.52-31.45.86-.86,4.64.17,7.91,1.2,7.56,2.41,17.7,5.5,28.18-1.03,14.78-9.11,6.36-25.26-1.72-40.9-1.55-3.09-3.09-6.19-4.64-9.11.69-1.03,1.55-1.89,2.23-2.92.86-.86,1.55-1.72,2.23-2.58l3.09-2.58c.86-.69,1.72-1.38,2.58-1.89,1.03-.86,2.23-1.37,3.44-2.06.86-.52,1.72-1.03,2.58-1.38,1.2-.69,2.41-1.2,3.78-1.55.69-.34,1.55-.86,2.41-1.03,1.2-.52,2.58-.86,3.78-1.03.69-.34,1.55-.52,2.23-.69,1.38-.34,2.58-.52,3.95-.86.52,0,1.03-.17,1.55-.17,1.55-.34,2.75-.34,3.95-.52.34,0,.69-.17.86-.17,1.55,0,2.75-.17,3.78-.17-1.55,7.9-4.47,29.9,6.7,39.7,1.72,1.55,3.78,2.58,6.01,3.27.69.34,1.55.51,2.23.69,1.72.34,3.44.69,5.5.69.34,0,.86.17,1.2.17.51,0,1.03-.17,1.37-.17,3.44-.17,7.05-.51,10.83-1.54,9.45-2.75,20.62-9.28,22.86-16.84,2.75-9.62-4.12-17.7-9.11-23.54-1.38-1.55-2.75-2.92-3.44-4.3-2.58-3.78-4.12-9.28,2.41-14.95.51-.51,1.37-.86,2.58-1.03.34-.17,1.03-.17,1.55-.17.86-.17,1.72-.34,2.92-.52h2.23c1.2-.17,2.23-.17,3.44-.17h6.7c1.03.17,2.06.17,3.27.17,1.2.17,2.58.17,3.95.17,1.03.17,1.89.17,2.92.34,1.55,0,3.09.17,4.47.34.69,0,1.38,0,2.06.17,1.72.17,3.61.34,5.33.51h.51c1.2.17,2.23.34,3.44.34l-.17.34h.34v9.45c-.17.34-.17.69-.17.86v7.22c-.17,2.24-.17,4.47-.17,6.7-.34,7.56.34,14.95,5.5,18.39,4.81,3.09,12.37,2.23,23.03-2.92,5.5-2.58,9.97-2.92,13.4-1.2,3.44,1.72,5.67,5.84,7.39,10.48Z"/>
        <path class="cls-1" d="M719.3,377.11l-13.75,27.5c-.17.34-.51.86-.86,1.37l-19.25,25.78c-1.2,1.89-3.27,2.92-5.33,3.44-1.89-3.95-4.3-7.56-7.91-9.45-4.81-2.41-10.83-2.06-17.7,1.2-8.76,4.13-15.12,5.33-18.39,3.27-3.27-2.24-3.61-8.25-3.44-14.44,0-2.06.17-4.12.17-6.18v-6.88c0-.52,0-1.03.17-1.55v-9.45h.69c.34,0,.69.17,1.2.17.86,0,1.55,0,2.41.17h6.53c1.89,0,3.95,0,6.01-.17h.86c1.72-.17,3.61-.34,5.67-.52.69,0,1.2-.17,1.89-.34,1.72-.17,3.27-.52,4.81-.86.69,0,1.37-.17,2.06-.34,2.06-.52,4.3-1.2,6.36-1.89,7.22-2.92,11.69-7.91,12.54-14.26.69-6.53-2.41-13.75-7.56-17.53-8.25-6.01-12.37-11.51-12.54-16.84-.17-4.3,2.23-8.42,7.39-12.72,7.56-6.19,19.07-7.39,28.53-5.16,3.09.86,6.02,1.89,8.42,3.44,2.06,1.2,4.12,2.92,5.5,5.16,1.55,2.24,2.23,4.98,1.55,8.42l-1.38,5.84c-3.78,17.01-6.87,30.42,3.44,32.82.52.17,1.2,0,1.89,0Z"/>
        <path class="cls-1" d="M489.89,480.91l-21.65,7.56c-.51.17-1.03.34-1.38.69l-5.5,2.41c-.34-7.05.51-12.54,2.58-14.43,1.03-.86,4.81.34,8.08,1.37,4.98,1.55,11.17,3.09,17.87,2.41Z"/>
        <path class="cls-1" d="M548.83,450.84c-3.44,0-6.87,1.2-9.45,3.61l-15.12,13.58c-1.03.86-2.06,1.55-3.44,1.89l-20.11,7.22c13.92-9.28,5.67-25.26-2.23-40.73-1.55-2.92-3.09-6.01-4.64-9.11.69-1.03,1.55-1.89,2.23-2.75.69-.86,1.38-1.89,2.23-2.58,1.03-1.03,2.06-1.72,3.09-2.58.86-.69,1.55-1.37,2.58-2.06s2.06-1.38,3.27-1.89c.86-.51,1.72-1.2,2.75-1.54,1.03-.52,2.23-1.03,3.44-1.38.86-.34,1.89-.86,2.75-1.2,1.2-.34,2.23-.69,3.44-.86.86-.34,1.72-.69,2.58-.86,1.2-.17,2.23-.34,3.27-.69.86,0,1.55-.17,2.23-.34,1.2-.17,2.23-.34,3.27-.34.51-.17,1.03-.17,1.55-.17,1.38-.17,2.58-.17,3.61-.34-1.55,8.08-4.3,29.9,6.87,39.7,1.55,1.55,3.61,2.58,5.84,3.44Z"/>
        <path class="cls-1" d="M675.14,435.54l-4.3-.17c-4.3-.17-8.42,1.37-11.51,4.47l-9.45,10.14c-1.55,1.72-3.78,2.75-6.01,3.09l-31.1,3.44c-.86.17-1.72.17-2.41,0l-36.09-4.81c-.51-.17-.86-.17-1.37-.17l-6.7-.17c1.2-.34,2.58-.52,3.78-.86,9.45-2.75,20.79-9.11,22.86-16.67,2.92-9.8-3.95-17.7-8.94-23.54-1.37-1.55-2.75-3.09-3.61-4.3-2.41-3.78-4.12-9.45,2.58-15.12.52-.34,1.2-.69,2.41-1.03.34,0,1.03,0,1.38-.17.86-.17,1.72-.34,2.75-.34.69-.17,1.55-.17,2.23-.17,1.03,0,1.89-.17,3.09-.17h3.09c1.03,0,2.06,0,3.27.17h3.44c1.2.17,2.23.17,3.44.17,1.38.17,2.58.17,3.95.34,1.03,0,2.23.17,3.27.17,1.38.17,2.58.34,3.95.34,1.03.17,2.23.34,3.27.34,1.2.17,2.41.34,3.44.34.86.17,1.72.17,2.58.34,0,2.23-.17,6.01-.17,10.31v6.36c0,.34,0,.86-.17,1.2v6.53c-.34,7.56.17,15.12,5.5,18.56,4.81,3.09,12.37,2.06,23.03-2.92,5.5-2.75,9.97-3.09,13.4-1.37,2.06,1.2,3.78,3.26,5.16,5.67Z"/>
        <path class="cls-1" d="M629.25,347.39v17.87c0,1.03-.17,2.06-.17,3.09,0,2.06,0,3.95-.17,5.84v1.72c0,2.41-.17,4.64-.17,6.53-.17.52-.17.69-.17,1.2,0,1.03,0,2.06-.17,2.75h-.69c-.69,0-1.38-.17-2.23-.17-.86-.17-1.89-.34-3.09-.34-1.03-.17-2.06-.34-3.09-.34-1.37-.17-2.58-.17-3.78-.34-1.2-.17-2.41-.17-3.61-.34-1.37,0-2.75-.17-4.3-.17-1.2-.17-2.41-.17-3.61-.17-1.55-.17-2.92-.17-4.3-.17h-3.44c-1.55,0-2.75.17-4.12.17-1.03,0-2.06.17-2.92.17-1.37.17-2.58.34-3.78.69-.69,0-1.38.17-1.89.34-1.72.34-2.92.86-3.78,1.55-7.05,6.01-8.25,13.92-3.27,21.31.86,1.55,2.41,3.09,3.78,4.81,4.64,5.15,10.31,11.86,8.08,19.07-.34,1.2-1.03,2.41-2.23,3.78-3.44,3.78-10.14,7.73-17.36,9.79-9.62,2.75-18.04,1.89-22.68-2.06-4.3-3.78-6.02-9.97-6.53-16.33-.17-2.23-.17-4.3-.17-6.36.34-8.25,1.89-15.12,1.89-15.29l.69-2.75-2.75-.17h-2.58c-.86,0-1.72,0-3.09.17h-1.55c-1.2.17-2.58.34-3.95.52-.69.17-1.55.17-2.23.34-1.55.17-3.09.52-4.64.86-.86.34-1.72.51-2.58.69-1.72.52-3.61,1.03-5.5,1.72-.69.34-1.37.52-2.06.86-2.58,1.03-5.16,2.23-7.56,3.78-.51.17-.86.52-1.2.86-2.06,1.37-3.95,2.75-5.84,4.47-.86.69-1.55,1.55-2.23,2.23-.86,1.03-2.06,1.89-2.92,3.09-.17-.34-.34-.69-.69-1.03-.34-.86-.86-1.55-1.37-2.41-.52-1.2-1.2-2.23-1.89-3.44-.34-.86-.86-1.89-1.37-2.75-.69-1.2-1.38-2.58-2.06-3.78-.34-1.03-.86-1.89-1.38-2.92-.69-1.37-1.38-2.58-1.89-3.95-.52-.86-.86-1.89-1.38-2.92-.52-1.2-1.03-2.58-1.72-3.78-.34-1.03-.69-1.89-1.03-2.75-.51-1.2-.86-2.41-1.2-3.61-.34-.69-.52-1.54-.86-2.23-.34-1.2-.51-2.23-.69-3.26,0-.52-.17-1.2-.17-1.55-.17-1.55-.17-2.58.34-3.44,3.27-7.56,12.54-5.67,27.67-1.89l.86.34c6.7,1.55,10.83-.69,13.23-2.92,6.19-5.84,6.53-17.7,4.81-26.12-.17-1.38-.51-2.92-.86-4.64-1.72-10.48-3.95-24.74-13.4-29.56-4.64-2.58-10.65-2.23-17.53,1.03-8.76,4.3-15.29,5.33-18.39,3.26-3.44-2.06-3.61-8.08-3.44-14.26,0-2.06,0-4.3.17-6.36v-1.38c0-4.3,0-8.42.17-11.68v-4.64h1.89c.69.17,1.55.17,2.58.17h1.38c1.03.17,2.23.17,3.44.17h1.38c2.06,0,4.12,0,6.19-.17h.69c1.89-.17,3.78-.34,5.84-.52.52-.17,1.2-.17,1.89-.34,1.55-.17,3.27-.52,4.81-.86.69-.17,1.38-.34,1.89-.52,2.23-.51,4.47-1.03,6.36-1.89,7.39-2.75,11.86-7.91,12.55-14.26.86-6.53-2.23-13.75-7.56-17.53-8.08-5.84-12.2-11.51-12.37-16.67-.17-4.3,2.23-8.59,7.22-12.72,10.14-8.42,27.32-7.73,37.12-1.72,3.95,2.41,8.42,6.7,6.87,13.58l-1.2,5.5c-3.95,17.18-7.05,30.76,3.44,33.17,1.2.17,2.75.17,4.64-.17.52-.17,1.2-.34,1.72-.52,1.55-.34,3.09-.86,4.81-1.37.86-.34,1.72-.69,2.41-1.03,1.89-.52,3.61-1.2,5.5-2.06.86-.34,1.89-.86,2.75-1.2,1.89-.86,3.78-1.72,5.84-2.58.86-.51,1.89-1.03,2.75-1.37,1.89-1.03,3.78-1.89,5.67-2.75.86-.52,1.89-1.03,2.75-1.55,1.89-.86,3.44-1.72,4.98-2.58.86-.52,1.72-.86,2.41-1.37,1.55-.69,2.92-1.37,4.13-2.06.69-.52,1.37-.69,1.89-1.03.34-.17.86-.52,1.03-.69,1.38,2.75,2.75,5.5,4.3,8.25,8.94,17.53,13.75,28.53,3.44,34.88-8.59,5.33-17.36,2.75-24.4.52-5.16-1.55-9.45-2.92-12.54-.17-6.19,5.67-4.98,23.03-.69,36.43,4.3,12.89,9.11,19.76,14.78,20.79,3.27.52,6.7-1.2,9.62-5.16,6.01-7.73,18.22-15.64,24.57-13.92.86.17,3.78,1.03,4.47,7.05.17,2.23.34,4.64.52,7.39,0,.86.17,1.72.17,2.58,0,1.89.17,3.78.17,5.67Z"/>
        <path class="cls-1" d="M497.79,473.52c-8.76,5.33-17.36,2.58-24.4.52-5.16-1.72-9.62-3.1-12.54-.34-3.95,3.61-4.98,11.51-4.12,20.1l-20.97,9.97c-1.89.69-3.78,1.03-5.67.69l-54.13-8.08c-2.06-.34-3.95-1.2-5.5-2.75l-18.22-18.22v-4.81c.17-1.2.17-2.58.17-3.44h.51c.52,0,.86.17,1.55.17h2.06c.52.17,1.2.17,1.89.17h4.81c1.89,0,3.95,0,6.01-.17h.86c1.89-.17,3.61-.34,5.5-.52.69,0,1.38-.17,2.06-.34,1.55-.17,3.09-.52,4.81-.86.69-.17,1.2-.17,1.89-.34,2.23-.52,4.3-1.2,6.36-1.89,7.39-2.92,11.69-7.9,12.55-14.43.86-6.36-2.23-13.57-7.56-17.53-8.25-5.84-12.2-11.34-12.37-16.67-.17-4.3,2.23-8.42,7.22-12.72,10.14-8.42,27.32-7.73,36.95-1.72,4.12,2.4,8.59,6.87,7.05,13.58l-1.2,5.5c-3.95,17.18-7.05,30.76,3.44,33.17,1.03.34,2.75.17,4.64-.17.34-.17,1.03-.34,1.55-.34,1.55-.52,3.09-.86,4.98-1.55.69-.17,1.38-.52,2.06-.69,1.89-.69,3.95-1.54,6.01-2.4.69-.34,1.38-.69,2.06-1.03,2.23-.86,4.3-1.72,6.53-2.75.69-.34,1.38-.69,2.06-1.2,2.23-1.03,4.3-2.06,6.36-3.09.86-.34,1.37-.69,2.23-1.03,1.89-1.03,3.78-2.06,5.67-2.92.69-.52,1.2-.69,1.89-1.03,1.55-1.03,3.09-1.72,4.3-2.41.69-.34,1.37-.69,1.89-1.03.34-.17.69-.34,1.03-.52,1.38,2.75,2.75,5.5,4.12,8.25,9.11,17.36,13.92,28.35,3.61,34.89Z"/>
        <path class="cls-1" d="M348.63,422.83v12.37c0,1.89,0,3.61-.17,5.5v3.09c0,2.06-.17,3.95-.17,5.67v2.06c-.17,2.23-.17,4.47-.34,6.36v1.03c0,1.2-.17,2.24-.17,2.92h-.69c-.69-.17-1.38-.17-2.23-.17-1.03-.17-2.06-.34-3.09-.34-1.03-.17-2.06-.34-3.27-.34-.34,0-.52-.17-.86-.17l-11-11c-.52-.51-1.2-1.03-1.72-1.54l-34.54-24.75c-.86-.69-1.72-1.72-2.41-2.75l-29.04-45.54c-.52-.69-1.03-1.38-1.55-1.89l-8.42-9.11c-1.72-1.89-2.58-4.3-2.58-6.7v-3.95c0-4.3,2.58-8.08,6.7-9.28l8.42-2.92c1.89-.69,3.61-1.72,5.16-3.09,1.03,1.2,2.41,2.06,4.12,2.58,1.2.17,2.92,0,4.81-.34.86-.17,2.06-.52,3.09-.86,1.03-.34,2.23-.52,3.44-1.03,1.38-.34,2.92-1.03,4.3-1.55,1.2-.51,2.41-1.03,3.61-1.55,1.72-.69,3.27-1.38,4.98-2.06,1.2-.69,2.41-1.2,3.61-1.72,1.55-.69,3.27-1.55,4.81-2.41,1.37-.51,2.58-1.2,3.78-1.72,1.38-.86,2.75-1.55,4.12-2.24,1.38-.69,2.58-1.37,3.78-1.89,1.03-.69,2.06-1.2,2.92-1.72,1.38-.69,2.58-1.37,3.61-1.89.69-.34,1.03-.51,1.55-.86.34-.17.69-.34,1.03-.52,1.38,2.75,2.75,5.5,4.12,8.25,9.11,17.53,13.75,28.53,3.61,34.89-8.76,5.5-17.36,2.75-24.4.52-5.16-1.55-9.62-2.92-12.55-.17-6.36,5.67-5.16,22.68-.69,36.43,2.92,8.76,7.73,19.59,14.61,20.79,3.44.51,6.7-1.2,9.8-5.16,5.84-7.73,18.22-15.81,24.4-13.92,1.03.17,3.78.86,4.47,7.04.34,2.24.52,4.64.69,7.22v2.92c.17,1.72.17,3.61.34,5.5Z"/>
        <path class="cls-1" d="M512.4,371.1c-2.06,1.89-4.98,2.41-8.76,1.55l-1.03-.17c-14.43-3.61-28.01-7.04-33.17,4.47-.52,1.38-.69,3.09-.52,5.16,0,.69.34,1.38.34,2.23.34,1.37.52,2.75,1.03,4.47.17.86.52,1.89.86,2.92.52,1.55,1.03,3.09,1.72,4.81.51,1.03.86,2.23,1.38,3.26.69,1.72,1.37,3.26,2.23,4.81.52,1.2.86,2.23,1.38,3.26.86,1.55,1.72,3.09,2.58,4.81.34.86.86,1.72,1.37,2.58.86,1.72,1.55,3.09,2.41,4.47.34.69.69,1.2,1.03,1.89,1.03,1.72,1.89,3.26,2.41,4.3.17,0,.17.17.17.17-.69.52-1.55,1.03-2.41,1.37-1.2.69-2.23,1.2-3.44,1.89s-2.41,1.38-3.78,2.06c-1.2.52-2.41,1.2-3.61,1.89-1.38.69-2.75,1.38-3.95,2.06-1.38.51-2.58,1.2-3.95,1.89-1.2.69-2.58,1.2-3.95,1.89-1.2.52-2.41,1.2-3.61,1.72-1.38.69-2.58,1.2-3.95,1.72-1.03.52-2.06,1.03-3.09,1.38-1.38.51-2.58,1.03-3.78,1.54-.69.17-1.72.69-2.41.86-1.2.52-2.23.69-3.27,1.03-.52.17-1.2.34-1.72.34-1.38.34-2.41.52-3.09.34-5.67-1.38-3.61-11.34.17-27.67l1.2-5.5c1.55-7.22-1.72-14.09-9.11-18.56-11.17-6.88-30.59-7.91-42.45,2.06-6.19,5.16-9.28,10.83-9.11,16.5.34,6.87,4.98,13.57,14.43,20.45,3.27,2.23,6.36,7.73,5.67,13.06-.52,4.64-3.95,8.25-9.62,10.48-1.72.69-3.61,1.2-5.67,1.72-.51.17-1.2.34-1.89.34-1.38.34-2.75.69-4.12.86-.69.17-1.38.17-2.06.34-1.38.17-2.75.17-4.12.34-.69,0-1.2.17-1.89.17-1.55,0-3.09.17-4.64.17h-.86c-1.89,0-3.61,0-5.16-.17h-.51c-1.38,0-2.41,0-3.44-.17h-1.2c-.34,0-.69,0-1.03-.17.17-1.03.17-2.75.34-4.64v-.69c0-1.72.17-3.61.17-5.67v-2.23c.17-1.72.17-3.61.17-5.5.17-1.03.17-2.06.17-2.92v-18.04c0-2.06-.17-3.95-.17-5.84,0-.86-.17-1.89-.17-2.75-.17-2.58-.34-5.15-.51-7.39-1.03-7.73-4.81-10.31-7.91-11.17-9.28-2.58-23.37,7.73-29.56,15.81-1.89,2.41-3.61,3.44-5.16,3.27-3.44-.69-7.73-7.39-11-17.7-4.81-14.78-4.3-28.18-.69-31.45,1.03-.86,4.81.17,8.08,1.2,7.39,2.4,17.7,5.5,28.18-1.03,5.5-3.44,7.73-7.73,8.08-12.72.17-5.16-1.55-10.66-4.12-16.5-1.72-3.78-3.78-7.73-5.67-11.69-1.2-2.41-2.41-4.81-3.61-7.22h.34l-1.2-2.06c.69-1.03,1.37-1.89,2.06-2.75.69-.86,1.37-1.72,2.23-2.58l3.09-2.58c.86-.69,1.55-1.37,2.41-1.89,1.2-.86,2.41-1.38,3.44-2.06.86-.51,1.72-1.03,2.75-1.54,1.2-.52,2.41-1.03,3.61-1.38.86-.34,1.72-.86,2.58-1.03,1.2-.52,2.41-.69,3.61-1.03.69-.34,1.55-.52,2.41-.69,1.2-.34,2.23-.52,3.44-.69.69-.17,1.38-.34,2.06-.52,1.2-.17,2.41-.17,3.44-.34.34,0,.86-.17,1.38-.17,1.37-.17,2.58-.17,3.61-.17-1.55,7.9-4.47,29.9,6.7,39.7,1.72,1.37,3.78,2.58,6.19,3.26.69.34,1.55.52,2.23.69,1.72.34,3.44.69,5.33.69.52,0,.86.17,1.38.17.34,0,.86-.17,1.38-.17,3.44-.17,6.87-.52,10.83-1.55,9.28-2.75,20.45-9.28,22.68-16.84,2.92-9.8-3.95-17.7-8.94-23.54-1.38-1.55-2.75-3.09-3.61-4.3-2.41-3.78-4.12-9.28,2.41-14.95.51-.52,1.38-.86,2.58-1.03.34-.17.86-.17,1.2-.17.86-.17,1.72-.34,2.75-.51h1.89c1.2-.17,2.23-.17,3.61-.17h6.36c.86,0,1.72.17,2.58.17,1.55,0,2.92,0,4.47.17.86,0,1.89.17,2.75.17,1.55.17,3.09.17,4.64.34.86,0,1.89.17,2.75.17,1.55.17,2.92.34,4.3.52,1.03,0,2.06.17,3.09.34.86,0,1.72.17,2.58.34v10.48c0,1.89,0,3.95-.17,6.01v1.38c0,2.23,0,4.3-.17,6.53-.17,7.56.34,14.95,5.67,18.39,4.81,3.09,12.2,2.23,23.03-2.92,5.5-2.58,9.97-3.1,13.4-1.2,7.22,3.78,9.45,17.18,10.83,26.12.34,1.89.69,3.44.86,4.81,1.55,7.56,1.03,17.7-3.44,21.99Z"/>
        <path class="cls-1" d="M463.42,241.7v11.86c-.17,1.03-.17,2.06-.17,2.92,0,2.06,0,3.95-.17,5.67v2.06c-.17,2.41-.17,4.64-.34,6.36v1.2c0,1.2-.17,2.23-.17,2.92-.17,0-.51,0-.69-.17-.69,0-1.2,0-1.89-.17-1.2,0-2.23-.17-3.61-.34-1.03-.17-1.89-.17-2.75-.34-1.38,0-2.75-.17-4.3-.34-1.03,0-2.06-.17-3.27-.17-1.38-.17-2.92-.17-4.47-.34-1.2,0-2.23,0-3.27-.17h-7.91c-1.55,0-2.92,0-4.3.17-1.03,0-1.89,0-2.75.17-1.55,0-2.75.34-3.95.51-.52.17-1.2.17-1.72.34-1.72.52-2.92,1.03-3.78,1.72-7.05,6.01-8.25,13.92-3.44,21.14,1.03,1.55,2.41,3.09,3.95,4.81,4.47,5.33,10.31,11.86,8.08,19.24-1.38,4.81-9.8,10.66-19.59,13.4-9.62,2.75-18.04,2.06-22.68-2.06-11.51-9.97-4.81-37.64-4.81-37.98l.69-2.75-2.75-.17h-2.41c-.86,0-1.89.17-3.09.17-.52,0-1.03.17-1.72.17-1.2,0-2.41.17-3.78.34-.69.17-1.55.34-2.23.34-1.38.34-2.92.52-4.47.86-.86.34-1.72.52-2.58.69-1.72.52-3.27,1.03-4.98,1.55-.86.34-1.72.52-2.58.86-2.06.86-4.12,1.89-6.19,3.09-.51.17-.86.34-1.38.69-2.41,1.38-4.81,3.09-7.05,5.16-.69.52-1.2,1.2-1.72,1.89-1.38,1.2-2.58,2.41-3.78,3.95-.17-.51-.51-.86-.69-1.37-.34-.52-.86-1.2-1.2-1.89-.69-1.2-1.38-2.58-2.06-3.78-.52-.86-.86-1.72-1.38-2.58-.69-1.38-1.38-2.58-2.06-3.95-.52-.86-.86-1.89-1.38-2.75-.69-1.37-1.37-2.75-1.89-4.13-.52-.86-1.03-1.89-1.38-2.75-.69-1.38-1.2-2.58-1.72-3.95-.34-.86-.69-1.72-1.03-2.58-.52-1.37-.86-2.58-1.2-3.78-.34-.69-.69-1.55-.86-2.23-.34-1.2-.52-2.23-.69-3.26,0-.52-.17-1.03-.17-1.55-.17-1.38-.17-2.58.17-3.44,3.27-7.39,12.72-5.5,27.84-1.72l.86.17c6.7,1.72,10.83-.52,13.23-2.75,6.19-5.84,6.53-17.87,4.81-26.29-.34-1.38-.52-2.92-.86-4.47-.52-3.78-1.38-8.08-2.41-12.2l25.43,23.71c2.75,2.41,6.19,3.78,9.8,3.78h38.67l38.15-5.5Z"/>
        <path class="cls-1" d="M346.56,259.23c-1.03,1.03-2.41,1.72-3.78,1.89-1.55.34-3.09.17-4.98-.17l-1.03-.34c-14.44-3.61-28.18-7.04-33.17,4.64-.51,1.2-.69,3.09-.51,4.98,0,.69.17,1.55.34,2.23.17,1.37.51,2.92.86,4.47.34,1.03.69,2.06,1.03,3.09.51,1.55,1.03,3.09,1.72,4.64.34,1.2.86,2.23,1.38,3.26.69,1.72,1.38,3.26,2.06,4.98.52,1.03,1.03,2.06,1.55,3.09.86,1.72,1.72,3.26,2.41,4.81.52.86,1.03,1.72,1.55,2.75.86,1.55,1.55,2.92,2.23,4.3.51.69.86,1.38,1.2,1.89.86,1.55,1.55,2.75,2.06,3.78.17.17.34.52.51.86-.51.34-1.2.69-1.89,1.03-.86.52-1.72.86-2.58,1.37-1.2.69-2.41,1.38-3.78,2.06-1.03.52-1.89,1.03-2.92,1.55-1.55.86-3.09,1.55-4.81,2.41-.86.52-1.72,1.03-2.75,1.37-1.89,1.03-3.61,1.89-5.5,2.75-.86.34-1.55.69-2.41,1.2-1.89.86-3.78,1.72-5.5,2.41-.69.34-1.55.69-2.06,1.03-1.89.69-3.61,1.37-5.33,2.06-.51.17-1.03.52-1.55.69-1.72.52-3.09.86-4.3,1.2-.34.17-.86.34-1.2.34-1.55.34-2.75.52-3.44.34-1.2-.17-1.72-1.03-2.23-1.89,1.72-3.26,2.06-6.87,1.03-10.65l-.86-2.92c0-.51,0-1.2-.17-1.72.51-2.24,1.03-4.81,1.72-7.56l8.76-22.17c2.23-5.5.86-11.52-3.27-15.64l-7.22-7.22c-3.09-3.26-3.78-8.08-1.55-12.03l4.13-6.88c1.89-2.92,4.98-4.81,8.42-4.81.69,0,1.55.17,2.23.34l16.67,3.78c1.2.34,2.23.34,3.27.34h4.12c4.3,0,8.42-1.89,11.34-5.33,2.75-3.61,3.78-8.08,2.75-12.37-.86-3.78.69-7.73,3.78-9.97l8.08-6.02c3.27-2.4,7.73-2.23,11-.17,2.75,5.84,4.3,13.4,5.16,19.25.34,1.72.52,3.26.86,4.81,1.55,7.56,1.03,17.53-3.44,21.82Z"/>
        <path class="cls-3" d="M376.64,501.36c-.86.34-1.72.52-2.75,1.03-8.94,4.12-15.29,5.33-18.39,3.26-3.44-2.23-3.78-8.25-3.44-14.43v-6.02c0-.69.17-1.38.17-1.89v-1.2l14.95,14.95c2.06,2.06,4.98,3.61,8.08,3.95l1.37.34Z"/>
        <path class="cls-3" d="M678.23,482.8c-1.03,1.03-2.23,1.72-3.78,1.89-1.38.34-3.09.17-4.98-.34l-1.03-.17c-14.44-3.61-28.01-7.04-33,4.47-.51,1.38-.69,2.92-.69,4.81,0,.69.34,1.55.34,2.23.17,1.37.34,2.58.69,4.13.34.86.69,1.89,1.03,2.92.34,1.38.86,2.75,1.38,4.3.51,1.2.86,2.23,1.38,3.26.69,1.55,1.2,2.92,1.89,4.47.51,1.2,1.03,2.24,1.55,3.44.69,1.38,1.38,2.75,2.23,4.13.52,1.2,1.03,2.23,1.55,3.27.69,1.37,1.38,2.58,2.06,3.78.51,1.03,1.03,1.89,1.55,2.58.69,1.38,1.2,2.41,1.72,3.44.51.69.86,1.2,1.2,1.89.17.17.34.52.34.69-17.18,9.62-44.34,23.2-50.01,21.82-5.5-1.38-3.61-11.34.17-27.5l1.2-5.5c1.72-7.39-1.72-14.26-9.11-18.73-11.17-6.7-30.93-7.56-42.45,2.23-6.19,5.16-9.28,10.66-9.11,16.5.34,6.88,4.98,13.58,14.44,20.28,3.27,2.4,6.36,7.73,5.67,13.06-.52,4.81-3.78,8.42-9.45,10.48-12.89,4.98-30.59,4.12-36.77,3.61.17-.34.17-.69.17-1.03v-2.58c.17-1.03.17-2.06.17-3.26,0-.86.17-1.89.17-2.75,0-1.37,0-2.75.17-4.12v-3.09c.17-1.55.17-3.09.17-4.64v-8.25c.17-1.2.17-2.23.17-3.44,0-1.72-.17-3.26-.17-4.81v-3.44c0-1.72-.17-3.44-.17-4.98-.17-.86-.17-1.89-.17-2.58-.17-2.41-.34-4.81-.51-6.88-1.03-7.56-4.81-10.14-7.91-11-9.28-2.58-23.37,7.56-29.56,15.64-1.89,2.41-3.61,3.61-5.16,3.27-3.44-.52-7.73-7.22-11-17.53-1.37-4.3-2.23-8.25-2.75-12.2l6.87-3.27c.34-.17.69-.17,1.03-.34l52.76-18.56c1.72-.69,3.44-1.55,4.81-2.92l15.12-13.57c1.89-1.72,4.3-2.58,6.87-2.58l23.37.86c.34,0,.69,0,.86.17l36.09,4.81c1.2.17,2.41.17,3.61,0l31.1-3.44c3.44-.34,6.53-1.89,8.94-4.47l9.45-10.14c2.06-2.06,4.81-3.27,7.73-3.09l6.36.34h.34c1.89,5.15,2.92,11,3.78,15.81.17,1.72.52,3.26.86,4.81,1.38,7.39.86,17.53-3.61,21.82Z"/>
        <path class="cls-3" d="M795.26,462.69v8.94c-.17,1.89-.17,3.78-.17,5.5v3.09c-.17,2.06-.17,3.95-.17,5.84,0,.52-.17,1.2-.17,1.89,0,2.23-.17,4.3-.17,6.19,0,1.03-.17,1.89-.17,2.92v1.2c-11-1.38-42.45-4.64-48.8.86-6.87,6.01-8.25,13.92-3.27,21.14,1.03,1.55,2.41,3.09,3.78,4.81,4.64,5.33,10.31,11.86,8.25,19.24-1.55,4.64-10.14,10.66-19.76,13.4-9.62,2.75-18.04,2.06-22.68-2.06-11.34-9.97-4.81-37.64-4.64-37.98l.69-2.75-2.92-.17h-1.55c-6.53,0-32.14,1.2-46.4,19.76-.17-.51-.51-1.03-.86-1.55-.51-.86-1.03-1.89-1.55-2.75-.69-1.2-1.2-2.41-1.89-3.61-.51-.86-1.03-1.89-1.72-2.92-.52-1.2-1.2-2.58-1.89-3.78-.52-1.03-1.03-2.06-1.55-3.09-.51-1.2-1.03-2.41-1.72-3.61-.34-1.03-.86-2.06-1.38-3.09-.52-1.2-1.03-2.4-1.38-3.44-.34-1.03-.86-1.89-1.2-2.75-.34-1.2-.69-2.24-1.03-3.27-.17-.86-.51-1.72-.69-2.41-.34-1.03-.52-2.06-.52-2.92-.17-.52-.34-1.2-.34-1.55-.17-1.38,0-2.41.34-3.26,3.27-7.56,12.55-5.5,27.67-1.72l1.03.17c6.7,1.72,10.83-.52,13.06-2.75,6.19-6.02,6.53-17.87,4.81-26.29-.17-1.38-.51-2.92-.69-4.47-.86-4.98-1.89-10.83-3.61-15.98,2.75-1.03,5.5-2.41,7.22-4.98l19.25-25.78c.52-.69.86-1.38,1.38-2.06l15.12-30.59h.52c.86-.34,1.72-.52,2.75-.86,1.72-.52,3.44-1.2,5.16-1.89.86-.34,1.55-.69,2.41-1.03,1.89-.86,3.95-1.72,6.01-2.58.69-.34,1.38-.69,2.06-1.03,2.06-1.03,4.13-1.89,6.36-2.92.69-.34,1.2-.69,1.89-1.03,2.06-1.03,3.95-2.06,5.84-3.09.69-.34,1.38-.69,2.06-1.03,1.72-.86,3.27-1.72,4.81-2.41.69-.51,1.38-.86,2.23-1.2,1.03-.69,2.06-1.2,2.92-1.72.34-.17.52-.34.69-.34,1.37,2.75,2.92,5.5,4.3,8.25,8.94,17.36,13.75,28.36,3.44,34.88-8.59,5.33-17.36,2.58-24.4.52-4.98-1.72-9.45-3.09-12.54-.34-6.36,5.84-4.98,22.68-.52,36.43,4.12,12.89,8.94,19.93,14.61,20.79,3.44.69,6.7-1.03,9.62-4.98,6.01-7.73,18.22-15.81,24.57-14.09.86.34,3.78,1.03,4.47,7.22.34,2.06.51,4.64.69,7.22v2.92c.17,1.72.17,3.61.17,5.5,0,1.2,0,2.23.17,3.44Z"/>
        <path class="cls-3" d="M793.2,295.66c-2.23,1.89-5.16,2.58-8.94,1.55l-.86-.17c-4.98-1.38-9.97-2.41-14.44-3.09l10.83-26.46c.86-2.24,2.41-3.95,4.64-4.98l9.11-4.64c.86,3.78,1.72,7.73,2.23,11.17.34,1.72.52,3.27.86,4.64,1.38,7.56,1.03,17.7-3.44,22Z"/>
        <path class="cls-3" d="M959.03,407.36c-2.23,2.06-5.16,2.58-8.76,1.72l-1.03-.34c-14.43-3.61-28.18-7.05-33.17,4.64-4.12,9.62,12.54,39.35,18.39,49.15-17.18,9.62-44.34,23.2-50.18,21.82-5.5-1.2-3.44-11.34.17-27.49l1.37-5.5c1.55-7.39-1.72-14.09-9.28-18.73-11-6.7-30.42-7.73-42.45,2.24-6.19,5.15-9.11,10.65-8.94,16.5.17,6.87,4.98,13.58,14.43,20.28,3.27,2.41,6.36,7.73,5.67,13.23-.69,4.64-3.95,8.25-9.62,10.48-12.72,4.81-30.42,3.95-36.6,3.44,0-1.03.17-2.41.17-4.12v-.52c.17-1.72.17-3.78.34-6.02v-2.06c0-1.89.17-3.61.17-5.67v-3.09c.17-1.89.17-3.78.17-5.67v-12.54c-.17-1.89-.17-3.78-.34-5.67v-2.92c-.17-2.75-.34-5.16-.69-7.56-.86-7.56-4.81-10.14-7.9-11-1.2-.34-2.41-.52-3.61-.52-8.94.52-20.45,9.11-25.78,16.15-1.89,2.4-3.78,3.61-5.33,3.26-3.44-.52-7.56-7.04-10.83-17.53-4.98-14.78-4.3-28.35-.69-31.62,1.03-.86,4.64.34,7.9,1.37,7.56,2.24,17.87,5.5,28.36-1.03,14.61-9.11,6.19-25.26-1.89-40.9-1.38-2.92-2.75-5.67-4.12-8.59l-.34-.69c.69-1.03,1.38-1.89,2.23-2.75.69-.86,1.37-1.89,2.06-2.58,1.03-1.03,2.06-1.72,3.09-2.58.86-.69,1.72-1.38,2.58-2.06,1.03-.69,2.23-1.37,3.44-1.89.86-.52,1.72-1.2,2.58-1.55,1.2-.52,2.41-1.03,3.61-1.55.86-.34,1.72-.69,2.58-1.03,1.2-.34,2.41-.69,3.61-1.03.86-.17,1.72-.52,2.41-.69,1.37-.17,2.41-.34,3.61-.69.69,0,1.38-.17,2.06-.34,1.2-.17,2.23-.34,3.27-.34.52-.17,1.03-.17,1.38-.17,1.55-.17,2.75-.17,3.78-.34-1.55,8.08-4.47,29.9,6.7,39.7,1.72,1.55,3.78,2.58,6.02,3.44.86.17,1.55.34,2.41.52,1.72.51,3.44.69,5.33.86.52,0,.86.17,1.38.17.34,0,.86-.17,1.38-.17,3.27-.17,6.87-.51,10.65-1.72,9.45-2.75,20.62-9.11,22.86-16.67,2.92-9.79-3.95-17.7-9.11-23.54-1.38-1.55-2.58-3.09-3.44-4.3-2.58-3.78-4.12-9.45,2.41-15.12.52-.34,1.38-.69,2.41-1.03.34,0,1.03,0,1.55-.17.69-.17,1.55-.34,2.58-.34.69,0,1.55-.17,2.23-.17,1.03,0,2.06,0,3.09-.17h2.92c1.2.17,2.23,0,3.44.17h3.27c1.2.17,2.58.17,3.78.17,1.2.17,2.23.17,3.44.34,1.2,0,2.58.17,3.78.17,1.2.17,2.41.34,3.44.34,1.37.17,2.58.34,3.78.34,1.2.17,2.23.34,3.27.34.86.17,1.72.34,2.58.34,0,4.47,0,15.12-.34,24.57-.17,7.39.34,14.95,5.67,18.39,4.64,3.09,12.2,2.06,22.85-2.92,5.5-2.58,10.14-3.09,13.4-1.37,7.22,3.78,9.62,17.36,11,26.29.34,1.72.51,3.44.86,4.81,1.55,7.73,1.03,17.53-3.44,21.82Z"/>
        <path class="cls-3" d="M1073.82,220.22c-2.23,2.06-4.98,2.58-8.76,1.54l-1.03-.17c-14.43-3.61-28.01-7.05-33.17,4.47-4.12,9.8,12.55,39.35,18.39,49.32-17.18,9.62-44.34,23.03-50.18,21.82-5.5-1.38-3.44-11.34.34-27.67l1.2-5.5c1.55-7.22-1.72-14.09-9.11-18.56-11.17-6.87-30.59-7.9-42.62,2.06-6.19,5.16-9.11,10.83-8.94,16.5.17,6.87,4.98,13.57,14.43,20.45,3.27,2.23,6.36,7.73,5.67,13.06-.69,4.64-3.95,8.25-9.62,10.48-12.72,4.98-30.42,4.12-36.6,3.61,0-1.2.17-2.92.17-4.64,0-.34.17-.69.17-.86,0-1.72,0-3.61.17-5.67v-2.23c.17-1.72.17-3.61.17-5.5,0-1.03,0-1.89.17-2.92v-18.04c-.17-2.06-.17-3.95-.17-5.84-.17-.86-.17-1.72-.17-2.75-.17-2.58-.34-5.16-.69-7.39-.86-7.56-4.81-10.31-7.9-11.17-9.28-2.41-23.2,7.73-29.39,15.81-1.89,2.41-3.61,3.44-5.16,3.27-3.44-.69-7.73-7.39-11-17.53-4.81-14.95-4.3-28.36-.69-31.62,1.03-.86,4.64.34,8.08,1.2,7.39,2.4,17.7,5.5,28.18-.86,1.72-1.2,3.27-2.41,4.47-3.78,2.23-2.75,3.44-5.84,3.61-9.11.17-5.16-1.55-10.65-4.13-16.5-1.72-3.78-3.78-7.73-5.84-11.69-1.38-2.75-2.75-5.67-4.12-8.42l.17-.17-.51-.86c11.69-16.67,34.37-18.9,42.27-19.25-1.55,7.9-4.47,29.9,6.7,39.7,6.02,5.16,15.98,6.36,27.15,3.09,9.45-2.75,20.62-9.28,22.86-16.84,2.92-9.62-3.95-17.7-9.11-23.37-1.37-1.72-2.58-3.09-3.44-4.47-2.58-3.61-4.12-9.28,2.41-14.95,3.78-3.26,28.18-1.89,45.54.34,0,4.3,0,15.12-.34,24.4-.17,7.56.34,14.95,5.67,18.39,4.81,3.09,12.2,2.23,23.03-2.92,5.5-2.58,9.97-2.92,13.23-1.2,7.39,3.78,9.62,17.18,11,26.12.34,1.89.69,3.44.86,4.81,1.55,7.56,1.03,17.7-3.44,22Z"/>
        <path class="cls-3" d="M910.05,275.38v8.94c0,1.89-.17,3.78-.17,5.5v3.09c-.17,2.06-.17,3.95-.17,5.67,0,.69,0,1.37-.17,2.06,0,2.23-.17,4.47-.17,6.36v1.03c-.17,1.2-.17,2.24-.17,3.09-.17-.17-.52-.17-.86-.17-.51,0-1.2-.17-1.72-.17-1.2-.17-2.41-.34-3.78-.34-.86-.17-1.72-.17-2.75-.34-1.38-.17-2.58-.17-4.12-.34-1.03-.17-2.23-.17-3.27-.34-1.55,0-2.92-.17-4.47-.17-1.2-.17-2.23-.17-3.44-.17-1.55-.17-3.09-.17-4.47-.17h-3.44c-1.38,0-2.75.17-4.13.17-1.03,0-2.06.17-2.92.17-1.38.17-2.58.34-3.78.69-.52,0-1.38.17-1.89.34-1.55.34-2.92.86-3.78,1.72-6.87,5.84-8.25,13.92-3.27,21.14,1.03,1.55,2.41,3.09,3.95,4.81,4.47,5.33,10.14,11.86,8.08,19.08-1.55,4.81-9.97,10.65-19.59,13.58-9.62,2.75-18.22,2.06-22.86-2.06-11.34-9.97-4.64-37.81-4.64-37.98l.69-2.75-2.92-.17h-2.23c-1.03,0-2.06,0-3.27.17h-1.55c-1.37.17-2.58.34-4.12.51-.69.17-1.38.17-2.23.34-1.37.17-2.92.51-4.64,1.03-.86.17-1.55.34-2.41.52-1.89.52-3.78,1.2-5.67,1.89-.69.17-1.38.34-1.89.69-2.58,1.03-5.16,2.23-7.73,3.78-.34.34-.69.69-1.2.86-2.06,1.37-3.95,2.75-5.84,4.47-.69.69-1.38,1.55-2.06,2.23-1.03,1.03-2.06,2.06-2.92,3.09-.34-.52-.69-.86-1.03-1.55-.51-.86-1.03-1.72-1.55-2.75-.69-1.03-1.2-2.23-1.89-3.44-.51-1.03-1.03-2.06-1.55-3.09-.69-1.2-1.38-2.41-1.89-3.61-.52-1.03-1.2-2.06-1.55-3.09-.69-1.2-1.2-2.4-1.72-3.61-.52-1.03-1.03-2.06-1.55-3.09-.51-1.2-.86-2.41-1.38-3.61-.34-.69-.69-1.55-.86-2.24l8.42-14.78c.17-.51.52-1.2.69-1.72l.86-2.06c4.3.51,9.11,1.37,15.12,2.92l1.03.34c6.7,1.54,10.83-.69,13.06-2.92,6.36-5.84,6.53-17.7,4.98-26.12-.34-1.37-.51-2.92-.86-4.64-.69-3.95-1.55-8.25-2.75-12.54l30.59-15.64c1.89-.86,3.61-2.4,4.98-4.12l11.34-15.12c1.89-2.58,2.92-5.5,2.92-8.76v-5.84c0-4.12-1.89-8.08-4.98-10.83l-6.19-5.5h.52c.86-.17,1.89-.52,2.92-.86s2.23-.52,3.44-1.03c1.38-.34,2.75-1.03,4.3-1.55,1.03-.51,2.06-.86,3.27-1.37,1.72-.69,3.44-1.38,5.16-2.23,1.03-.52,2.06-.86,3.09-1.37,1.89-.86,3.61-1.72,5.33-2.58,1.03-.51,2.06-1.03,3.09-1.54,1.72-.86,3.27-1.72,4.98-2.58,1.03-.51,1.89-.86,2.92-1.37,1.38-.86,2.75-1.55,3.95-2.24,1.03-.52,1.89-1.03,2.92-1.55.86-.51,1.72-1.03,2.58-1.37.17-.17.52-.34.86-.52,1.2,2.75,2.75,5.67,4.13,8.42,9.11,17.36,13.75,28.36,3.44,34.71-8.59,5.5-17.36,2.75-24.23.52-5.16-1.55-9.62-2.92-12.54-.17-6.36,5.67-5.16,23.03-.69,36.43,2.75,8.76,7.73,19.59,14.61,20.79,3.44.52,6.7-1.2,9.8-5.15,5.84-7.73,18.22-15.64,24.4-13.92,1.03.17,3.78,1.03,4.47,7.04.34,2.24.51,4.64.69,7.39v2.75c.17,1.72.17,3.61.17,5.5,0,1.2.17,2.23.17,3.44Z"/>
        <path class="cls-3" d="M830.14,151.31l-1.38,5.5c-2.06,9.45-3.78,17.53-3.44,23.54l-29.73-25.78c-2.75-2.41-6.01-3.61-9.62-3.61h-7.05c.34-3.95,2.58-7.73,7.22-11.51,9.97-8.42,27.15-7.73,36.95-1.72,3.95,2.4,8.42,6.7,7.05,13.58Z"/>
        <path class="cls-3" d="M907.99,108.35c-2.23,2.06-5.16,2.58-8.94,1.72l-.86-.34c-14.44-3.61-28.18-7.05-33.17,4.64-4.3,9.62,12.37,39.18,18.39,49.15-1.03.52-1.89,1.03-2.92,1.55-.86.52-1.72,1.03-2.75,1.55-1.55.86-3.27,1.72-4.81,2.58-.86.34-1.72.86-2.58,1.37-1.89.86-3.95,1.89-5.84,2.92-.69.34-1.2.52-1.89.86-2.06,1.03-4.3,2.06-6.36,3.09-.34.17-.86.34-1.2.69-2.23.86-4.12,1.72-6.19,2.58-.34.17-.69.34-1.2.52-1.89.86-3.61,1.55-5.33,2.06-.17.17-.69.34-.86.52-1.55.52-2.92.86-4.13,1.2-.34,0-.69.17-.86.17-1.37.34-2.58.34-3.27.17-5.5-1.2-3.44-11.17.17-27.5l1.2-5.5c1.72-7.39-1.72-14.09-9.11-18.73-11-6.7-30.42-7.73-42.45,2.23-5.67,4.81-8.59,9.8-8.76,15.12h-25.95c-.17-2.58-.34-4.81-.51-6.87-.86-7.73-4.81-10.31-7.91-11.17-4.47-1.2-9.97.52-15.12,3.44l-8.08-6.36c-2.92-2.41-6.87-3.61-10.65-3.09l-13.23,1.55c-2.92-12.37-2.23-22.85.86-25.6.86-1.03,4.64.17,7.91,1.2,7.56,2.4,17.7,5.5,28.18-1.03,14.78-9.11,6.36-25.26-1.72-41.07-1.55-2.92-3.09-6.01-4.64-9.11,11.69-16.84,34.37-19.25,42.45-19.42-1.55,7.9-4.47,29.73,6.7,39.7,5.84,5.16,15.81,6.19,27.15,2.92,9.45-2.75,20.62-9.11,22.86-16.67,2.75-9.79-4.12-17.7-9.11-23.54-1.38-1.55-2.58-3.1-3.44-4.3-2.58-3.78-4.12-9.45,2.41-15.12,3.78-3.09,28.18-1.72,45.54.34,0,4.47-.17,15.12-.34,24.57-.34,7.39.34,14.95,5.5,18.39,4.81,3.09,12.37,2.06,23.03-2.92,5.5-2.58,9.97-3.09,13.4-1.38,7.22,3.95,9.45,17.36,11,26.29.34,1.72.52,3.44.86,4.81,1.38,7.56,1.03,17.53-3.44,21.82Z"/>
        <path class="cls-3" d="M727.38,99.07c-8.59,5.33-17.36,2.58-24.4.52-5.16-1.55-9.45-2.92-12.55-.34-5.33,4.98-5.33,17.7-2.41,29.73l-59.11,6.87c-1.89-3.78-4.3-7.22-7.91-9.11-4.64-2.41-10.65-2.06-17.53,1.2-8.76,4.12-15.12,5.33-18.39,3.27-3.27-2.23-3.61-8.25-3.44-14.43,0-2.06.17-4.12.17-6.19v-6.87c0-.52.17-1.03.17-1.55v-9.45c6.7.51,24.92,1.37,38.49-3.78,7.22-2.92,11.69-7.9,12.55-14.26.69-6.53-2.41-13.75-7.73-17.53-8.08-6.02-12.2-11.52-12.37-16.84-.17-4.12,2.23-8.42,7.22-12.72,10.14-8.42,27.32-7.56,37.12-1.72,3.95,2.58,8.42,6.87,7.05,13.58l-1.38,5.5c-3.95,17.18-7.05,30.76,3.44,33.17,8.94,2.23,44.16-17.01,53.27-22.17,1.38,2.75,2.92,5.5,4.3,8.25,8.94,17.36,13.75,28.53,3.44,34.89Z"/>
        <path class="cls-3" d="M624.27,137.22c-1.89.86-3.78,2.06-5.33,3.61l-31.96,37.12c-2.58,2.75-6.53,3.95-10.14,2.92l-20.62-5.67c-4.47-1.2-9.11-.17-12.72,2.58l-7.05,5.33c-1.2,1.03-2.41,2.24-3.27,3.44l-1.38,2.23c-1.89,2.75-4.81,4.3-8.25,4.3h-29.56c-4.64,0-8.94,2.23-11.51,5.84l-6.02,7.73c-2.92,3.61-3.78,8.59-2.41,13.06l1.37,4.12c.69,2.75.34,5.67-1.2,8.08-1.38,2.23-3.61,3.61-6.19,4.12v-.69c0-1.89-.17-3.78-.17-5.67,0-.86,0-1.89-.17-2.75-.17-2.75-.34-5.33-.52-7.56-1.03-7.56-4.81-10.14-7.91-11-9.28-2.58-23.37,7.56-29.56,15.64-1.89,2.4-3.61,3.61-5.16,3.26-3.44-.52-7.73-7.22-11-17.53-4.81-14.78-4.3-28.18-.69-31.45,1.03-1.03,4.64.17,8.08,1.2,7.56,2.24,17.7,5.5,28.18-1.03,14.78-9.11,6.36-25.44-1.72-41.07-1.55-2.92-3.09-6.01-4.64-9.28,11.69-16.84,34.37-19.07,42.27-19.42-1.37,8.08-4.3,29.9,6.87,39.7,5.84,5.33,15.81,6.36,27.15,3.09,9.45-2.75,20.62-9.11,22.85-16.67,2.75-9.79-4.12-17.7-9.11-23.54-1.38-1.55-2.75-3.09-3.61-4.3-2.41-3.78-4.12-9.45,2.58-15.12,3.78-3.09,28.18-1.72,45.54.34,0,1.03,0,2.41-.17,4.12v13.75c-.17,2.24-.17,4.47-.17,6.53-.34,7.56.17,15.12,5.5,18.56,4.81,3.09,12.37,2.06,23.03-2.92,5.5-2.58,9.97-3.09,13.4-1.37,2.23,1.2,3.95,3.61,5.33,6.36Z"/>
        <path class="cls-3" d="M463.42,235.68v1.2l-38.84,5.5c-.34.17-.86.17-1.38.17h-36.6c-2.41,0-4.81-.86-6.53-2.58l-31.45-29.04c-.34-.34-.69-.52-1.03-.69-1.72-3.44-3.95-6.36-7.22-8.08-4.81-2.41-10.65-2.06-17.53,1.2-8.94,4.12-15.29,5.33-18.39,3.26-3.44-2.23-3.78-8.25-3.44-14.44v-6.01c0-.69.17-1.2.17-1.89v-10.83c0-.69,0-1.2.17-1.72v-3.61c6.7.52,24.75,1.37,38.32-3.78,7.22-2.92,11.69-7.91,12.54-14.26.86-6.53-2.23-13.75-7.56-17.53-8.25-6.01-12.2-11.51-12.54-16.84,0-4.12,2.41-8.42,7.39-12.72,9.97-8.42,27.32-7.56,36.95-1.72,4.12,2.41,8.59,6.87,7.05,13.57l-1.2,5.5c-3.95,17.18-7.05,30.76,3.27,33.17,8.76,2.06,42.45-16.15,53.44-22.17,1.38,2.75,2.75,5.5,4.3,8.25,8.94,17.36,13.75,28.36,3.44,34.88-8.76,5.33-17.36,2.58-24.4.52-5.16-1.72-9.62-3.09-12.54-.34-6.36,5.84-5.16,22.86-.69,36.43,4.12,12.89,9.11,19.93,14.61,20.79,3.44.69,6.7-1.03,9.79-4.98,6.02-7.73,18.22-15.81,24.57-14.09.86.34,3.61,1.03,4.47,7.05.17,2.23.34,4.81.52,7.39,0,.86,0,1.89.17,2.75,0,1.89.17,3.61.17,5.67Z"/>
        <path class="cls-3" d="M339,207.16c-3.09-.17-6.19.69-8.76,2.58l-8.08,5.84c-4.64,3.44-6.87,9.28-5.67,14.95.69,2.92,0,6.02-1.89,8.42-1.89,2.24-4.64,3.61-7.56,3.61h-4.12c-.69,0-1.38,0-2.06-.17l-16.84-3.95c-6.19-1.37-12.55,1.37-15.64,6.7l-4.12,6.87c-3.44,5.84-2.41,13.06,2.23,17.7l7.22,7.22c2.75,2.75,3.61,6.87,2.23,10.48l-3.09,7.73c-1.2-4.12-4.12-7.9-8.59-10.65-11.17-6.7-30.59-7.91-42.62,2.23-6.19,5.16-9.11,10.66-8.94,16.33.34,7.05,4.98,13.75,14.44,20.45,3.27,2.4,6.36,7.73,5.67,13.06-.69,4.81-3.95,8.42-9.62,10.65-1.72.69-3.61,1.2-5.67,1.72-.52.17-1.2.17-1.89.34-1.37.34-2.75.51-4.12.69-.69.17-1.38.34-2.23.34-1.2.17-2.58.34-3.78.34-.69.17-1.38.17-2.06.17-1.55.17-2.92.17-4.3.17h-7.56c-1.03-.17-2.06-.17-2.92-.17h-.86c-.34-.17-.69-.17-1.03-.17v-.17h-.17c.52-8.94,1.89-39.18-.17-55.68-.86-7.56-4.81-10.14-7.91-11-9.11-2.58-23.2,7.56-29.39,15.64-1.89,2.41-3.61,3.61-5.16,3.27-3.61-.51-7.73-7.05-11-17.53-4.81-14.78-4.3-28.36-.69-31.62,1.03-.86,4.81.34,8.08,1.38,7.39,2.23,17.7,5.5,28.18-1.03,14.61-9.11,6.36-25.43-1.72-41.07-1.72-2.92-3.27-6.01-4.81-9.11,11.69-17.01,34.54-19.25,42.45-19.59-1.55,8.08-4.47,29.9,6.7,39.7,6.02,5.33,15.81,6.36,27.15,3.09,9.45-2.75,20.62-9.11,22.86-16.67,2.92-9.8-3.95-17.7-9.11-23.54-1.37-1.55-2.58-3.09-3.44-4.3-2.58-3.78-4.13-9.45,2.41-15.12,3.95-3.26,30.25-1.55,45.54.34v10.65c0,1.89-.17,3.78-.17,5.67v1.89c0,2.06,0,4.12-.17,6.18-.17,7.56.34,15.12,5.67,18.56,4.64,3.09,12.2,2.06,23.03-2.92,5.5-2.75,9.97-3.1,13.4-1.38.17.17.34.69.69.86Z"/>
        <path class="cls-3" d="M231.77,446.37c-1.2,1.03-2.41,1.72-3.78,2.06-1.55.17-3.27.17-4.98-.34l-1.03-.17c-14.43-3.78-28.18-7.05-33.17,4.47-.51,1.2-.69,2.92-.51,4.81,0,.69.17,1.37.17,2.06.34,1.38.51,2.75.86,4.12.17,1.03.51,2.06.86,2.92.52,1.55.86,2.92,1.55,4.47.34,1.03.86,2.06,1.37,3.27.52,1.54,1.2,2.92,1.72,4.3.69,1.2,1.2,2.4,1.72,3.44.69,1.55,1.38,2.92,2.06,4.3.52,1.03,1.03,2.06,1.72,3.09.69,1.38,1.37,2.58,1.89,3.78.51,1.03,1.03,1.89,1.55,2.75.69,1.2,1.2,2.23,1.89,3.27.34.69.69,1.2,1.03,1.89.17.17.34.51.51.69-17.36,9.62-44.34,23.2-50.18,21.82-5.5-1.2-3.44-11.17.17-27.5l1.37-5.5c1.55-7.39-1.72-14.09-9.28-18.73-11-6.7-30.42-7.73-42.45,2.24-6.19,5.15-9.11,10.65-8.94,16.5.17,6.87,4.98,13.58,14.43,20.45,3.27,2.41,6.36,7.56,5.67,13.06-.69,4.64-3.95,8.25-9.62,10.48-12.72,4.98-30.42,3.95-36.6,3.44.34-8.59,1.89-39.18-.17-55.68-.86-7.73-4.81-10.31-7.9-11.17-9.28-2.58-23.2,7.73-29.39,15.64-1.89,2.58-3.61,3.61-5.33,3.44-3.44-.69-7.56-7.22-11-17.7-4.81-14.78-4.12-28.18-.51-31.45,1.03-1.03,4.47.17,7.9,1.2,7.56,2.41,17.87,5.5,28.18-1.03,14.78-9.11,6.36-25.26-1.72-40.9-1.55-3.09-3.09-6.19-4.64-9.28,11.69-16.84,34.54-19.25,42.45-19.42-1.55,7.91-4.47,29.73,6.7,39.7,6.02,5.16,15.81,6.19,27.15,2.92,9.45-2.75,20.62-9.11,22.86-16.67,2.75-9.79-4.12-17.7-9.11-23.54-1.37-1.55-2.58-3.09-3.44-4.3-2.58-3.78-4.12-9.45,2.41-14.95,3.61-3.09,27.5-1.89,45.2.17v.34h.34v10.48c-.17,1.72-.17,3.61-.17,5.67v1.72c0,2.24-.17,4.3-.17,6.36-.17,3.78,0,7.39.69,10.65.86,3.27,2.23,6.02,4.98,7.73,2.23,1.55,5.33,2.06,9.11,1.55,3.95-.34,8.42-1.89,13.75-4.47,5.5-2.58,10.14-3.09,13.4-1.2,7.39,3.78,9.62,17.18,11,26.12.34,1.72.51,3.44.86,4.81,1.55,7.56,1.03,17.7-3.44,21.82Z"/>
        <path class="cls-3" d="M330.41,460.29c-1.2-.17-2.23-.17-3.44-.17-1.2-.17-2.41-.17-3.61-.17-1.55-.17-2.92-.17-4.47-.17h-3.44c-1.37,0-2.75.17-4.12.17-1.03,0-1.89.17-2.92.17-1.38.17-2.58.34-3.78.69-.51,0-1.2.17-1.89.34-1.55.34-2.92.86-3.61,1.54-7.05,6.02-8.25,13.92-3.44,21.31,1.03,1.55,2.41,3.09,3.95,4.81,1.2,1.38,2.41,2.75,3.44,4.12,2.23,2.92,4.3,6.19,4.98,9.62.17,1.72.17,3.44-.34,5.33-1.03,3.61-6.02,7.9-12.72,10.82-2.06,1.03-4.47,2.06-6.87,2.75-9.62,2.75-18.22,1.89-22.86-2.06-11.34-10.14-4.64-37.81-4.64-37.98l.69-2.75-2.92-.17h-2.41c-.86,0-1.89,0-3.09.17h-1.72c-1.2.17-2.41.34-3.78.52-.86,0-1.55.17-2.41.34-1.38.17-2.92.52-4.47.86-.86.17-1.72.34-2.58.69-1.89.52-3.61,1.03-5.5,1.72-.69.34-1.38.52-2.06.86-2.58,1.03-5.16,2.23-7.73,3.78-.34.17-.69.52-1.2.86-2.06,1.38-3.95,2.75-5.84,4.47-.69.69-1.37,1.55-2.06,2.24-1.03,1.03-2.06,1.89-2.92,3.09-.34-.52-.69-1.03-1.03-1.55-.34-.86-.86-1.72-1.38-2.75-.69-1.03-1.38-2.23-2.06-3.44-.51-1.03-1.03-2.06-1.55-3.09-.69-1.2-1.38-2.41-1.89-3.61-.51-1.03-1.03-2.06-1.55-3.09-.69-1.2-1.2-2.58-1.72-3.78-.51-1.03-1.03-2.06-1.37-2.92-.52-1.2-1.03-2.41-1.55-3.61-.34-.86-.69-1.89-1.03-2.75-.51-1.2-.86-2.23-1.2-3.26-.17-.86-.51-1.55-.69-2.23-.34-1.2-.34-2.06-.52-3.09-.17-.52-.34-1.03-.34-1.55,0-1.2,0-2.41.34-3.09,3.27-7.56,12.72-5.67,27.67-1.89l1.03.17c.69.17,1.2.17,1.89.34.86.17,1.89.34,2.58.34,4.13,0,6.87-1.72,8.59-3.44,6.36-5.84,6.53-17.7,4.98-26.12-.34-1.37-.52-2.92-.86-4.64-1.72-10.48-4.13-24.75-13.4-29.56-4.81-2.58-10.65-2.23-17.53,1.03-8.94,4.3-15.29,5.33-18.39,3.26-3.44-2.23-3.78-8.25-3.61-14.26.17-2.06.17-4.13.17-6.19v-1.89c.17-1.72.17-3.44.17-4.98v-11.17c.34.17.51.17.69.17h1.38c.69,0,1.37.17,2.23.17h1.72c1.03.17,2.06.17,3.09.17h1.72c1.89,0,3.95,0,6.19-.17.17,0,.51,0,.69-.17,1.89,0,3.78-.17,5.67-.52.69,0,1.37-.17,2.06-.17,1.55-.34,3.09-.52,4.64-.86.69-.17,1.37-.34,2.06-.51,2.23-.52,4.3-1.03,6.36-1.89,7.22-2.75,11.69-7.9,12.54-14.26.86-6.53-2.23-13.75-7.56-17.53-8.08-5.84-12.2-11.51-12.54-16.67,0-4.3,2.41-8.59,7.39-12.72,9.97-8.42,27.32-7.73,36.95-1.89,4.13,2.58,8.59,6.87,7.05,13.75l-1.2,5.5c-.17.86-.52,1.72-.69,2.58l-.86,2.4c-.86,1.89-1.03,3.95-.86,6.02-1.2,6.01-1.72,11.34-.86,15.29-1.2,1.2-2.41,2.41-4.3,2.92l-8.42,2.92c-6.02,1.89-9.97,7.39-9.97,13.75v3.95c0,3.61,1.38,7.22,3.95,9.79l8.42,9.11c.34.52.69.86,1.03,1.38l29.04,45.54c1.03,1.55,2.23,2.92,3.61,3.95l34.54,24.75c.34.34.69.69,1.2,1.03l7.05,7.22Z"/>
        <path class="cls-3" d="M397.6,558.24c-1.03,1.03-2.41,1.72-3.78,1.89-.86.17-2.06,0-3.09-.17-.69,0-1.2,0-1.89-.17l-1.03-.17c-14.44-3.61-28.01-7.05-33.17,4.47-.52,1.37-.69,3.09-.52,5.15,0,.69.17,1.55.34,2.23.17,1.38.52,2.92.86,4.47.34,1.03.69,2.06,1.03,3.09.52,1.55,1.03,3.09,1.72,4.64.34,1.2.86,2.23,1.37,3.26.69,1.72,1.38,3.27,2.06,4.98.52,1.03,1.03,2.06,1.55,3.09.86,1.72,1.72,3.27,2.41,4.81.51.86,1.03,1.72,1.38,2.75.86,1.54,1.72,2.92,2.58,4.3.34.69.69,1.37,1.03,1.89.86,1.55,1.55,2.75,2.06,3.78.17.17.34.51.52.86-12.72,7.22-41.59,21.82-49.15,21.82h-.86c-5.67-1.37-3.61-11.34.17-27.5l1.2-5.5c1.55-7.39-1.72-14.26-9.11-18.73-11.17-6.7-30.59-7.9-42.62,2.24-6.19,5.15-9.11,10.65-8.94,16.5.34,6.87,4.98,13.4,14.43,20.28,3.27,2.41,6.36,7.73,5.67,13.06-.69,4.81-3.95,8.42-9.62,10.48-12.72,4.98-30.42,4.13-36.6,3.61.51-8.59,1.89-39.18-.17-55.85-.86-7.56-4.81-10.14-7.91-11-9.11-2.58-23.2,7.56-29.39,15.64-1.89,2.4-3.61,3.61-5.16,3.26-3.61-.52-7.73-7.22-11-17.53-4.81-14.95-4.3-28.36-.69-31.62,1.03-.86,4.64.34,8.08,1.38,7.39,2.23,17.7,5.5,28.18-1.03,14.78-9.28,6.36-25.43-1.89-41.07-1.37-2.75-2.75-5.67-4.12-8.42l.17-.17-.51-.69c.69-.86,1.37-1.72,2.23-2.58.69-.86,1.38-1.89,2.23-2.58.86-1.03,1.89-1.72,2.92-2.58.86-.69,1.72-1.38,2.58-2.06,1.2-.69,2.23-1.37,3.44-1.89.86-.52,1.72-1.2,2.58-1.55,1.2-.52,2.41-1.03,3.61-1.55.86-.34,1.72-.69,2.75-1.03,1.2-.34,2.23-.69,3.44-1.03.86-.17,1.72-.52,2.58-.69,1.2-.34,2.23-.52,3.44-.69.69-.17,1.38-.34,2.06-.34,1.2-.17,2.23-.34,3.27-.34.52-.17,1.03-.17,1.55-.17,1.37-.17,2.58-.34,3.61-.34-1.55,8.08-4.47,29.9,6.7,39.7,1.72,1.55,3.78,2.58,6.19,3.44.69.17,1.38.34,2.23.51,1.72.34,3.44.69,5.33.86.52,0,.86.17,1.38.17.34,0,.86-.17,1.38-.17,3.44-.17,6.87-.69,10.65-1.72,9.45-2.75,20.62-9.11,22.85-16.67,2.92-9.79-3.95-17.7-8.94-23.54-1.38-1.55-2.75-3.09-3.61-4.3-2.58-3.78-4.12-9.45,2.41-15.12.51-.34,1.38-.69,2.41-1.03.51,0,1.03,0,1.55-.17.69-.17,1.55-.34,2.58-.34.69-.17,1.55-.17,2.23-.17,1.03,0,2.06-.17,3.27-.17h2.75c1.2,0,2.23,0,3.61.17h3.09c1.2.17,2.58.17,3.95.17,1.03.17,2.06.17,3.09.34,1.38,0,2.75.17,4.12.17.34,0,.52.17.86.17l12.03,12.03c0,1.72-.17,3.61-.17,5.5v1.72c0,2.24,0,4.3-.17,6.36-.17,7.56.34,15.12,5.67,18.56,4.64,3.1,12.2,2.06,23.03-3.09,5.5-2.58,9.97-2.92,13.23-1.2,7.39,3.78,9.62,17.36,11,26.29.34,1.72.69,3.27.86,4.81,1.55,7.56,1.03,17.53-3.44,21.82Z"/>
        <path class="cls-3" d="M514.46,532.98v19.76c-.17,1.55-.17,2.92-.17,4.3,0,1.2,0,2.24-.17,3.27v3.95c-.17,1.03-.17,2.06-.17,3.09,0,.86-.17,1.89-.17,2.75,0,1.2,0,2.58-.17,3.61-11-1.37-42.27-4.64-48.63.86-7.05,6.02-8.25,13.92-3.44,21.14,1.03,1.55,2.41,3.09,3.95,4.81,4.47,5.33,10.14,11.86,8.08,19.08-1.38,4.81-10.14,10.82-19.59,13.57-9.62,2.75-18.22,2.06-22.68-2.06-11.51-9.97-4.81-37.63-4.81-37.98l.69-2.75-2.75-.17h-1.55c-6.53,0-32.14,1.2-46.4,19.76-.17-.52-.52-.86-.69-1.2-.34-.69-.86-1.54-1.38-2.23-.51-1.2-1.2-2.41-1.89-3.44-.51-1.03-1.03-1.89-1.37-2.92-.69-1.2-1.38-2.4-2.06-3.61-.51-1.03-1.03-2.06-1.37-3.09-.69-1.2-1.38-2.58-1.89-3.78-.51-1.03-1.03-2.06-1.37-2.92-.69-1.37-1.2-2.58-1.72-3.78-.34-1.03-.69-1.89-1.03-2.92-.51-1.2-.86-2.23-1.2-3.44-.34-.86-.69-1.72-.86-2.41-.34-1.2-.51-2.23-.69-3.26,0-.52-.17-1.03-.17-1.55-.17-1.37-.17-2.58.17-3.44,3.27-7.56,12.72-5.5,27.84-1.72l.86.17c6.7,1.72,10.83-.51,13.23-2.75,6.19-5.84,6.53-17.87,4.81-26.29-.17-1.37-.51-2.92-.86-4.64-.86-5.15-1.89-11.34-3.78-16.84-1.55-3.95-3.78-7.39-6.53-9.96l34.88,5.33h2.23c2.06,0,4.12-.34,6.02-1.37l19.76-9.11c.69,3.78,1.55,7.73,2.75,11.34,4.12,12.89,9.11,19.93,14.61,20.79,3.44.69,6.7-1.03,9.8-4.98,6.01-7.73,18.22-15.81,24.4-14.09,1.03.17,3.78,1.03,4.64,7.22.17,1.89.34,4.12.51,6.53v2.58c.17,1.72.17,3.26.34,4.81Z"/>
      </g>
    </g>
  </g>
</svg>